<?xml version="1.0" encoding="UTF-8" standalone="no"?>
<!DOCTYPE svg PUBLIC "-//W3C//DTD SVG 1.1//EN" "http://www.w3.org/Graphics/SVG/1.1/DTD/svg11.dtd">
<svg width="100%" height="100%" viewBox="0 0 680 600" version="1.1" xmlns="http://www.w3.org/2000/svg" xmlns:xlink="http://www.w3.org/1999/xlink" xml:space="preserve" xmlns:serif="http://www.serif.com/" style="fill-rule:evenodd;clip-rule:evenodd;stroke-linejoin:round;stroke-miterlimit:1.41421;">
    <g transform="matrix(1.60754,0,0,1.10314,-396.974,-254.801)">
        <path d="M667.234,368.666C667.234,350.319 657.013,335.424 644.422,335.424L272.245,335.424C259.655,335.424 249.433,350.319 249.433,368.666L249.433,662.374C249.433,680.721 259.655,695.616 272.245,695.616L644.422,695.616C657.013,695.616 667.234,680.721 667.234,662.374L667.234,368.666Z" style="fill:rgb(255,197,107);fill-opacity:0.745098;"/>
    </g>
    <g id="OBJECTS" transform="matrix(1,0,0,1,-460,-118.415)">
        <g transform="matrix(0.925124,0,0,0.925124,607.324,606.181)">
            <path d="M0,26.405C0,11.822 94.989,0 212.165,0C329.34,0 424.33,11.822 424.33,26.405" style="fill:rgb(58,88,101);fill-rule:nonzero;"/>
        </g>
        <g transform="matrix(-0.925124,-0,0,0.925124,1532.13,476.798)">
            <rect x="755.431" y="73.647" width="80.511" height="63.275" style="fill:rgb(97,143,168);"/>
        </g>
        <g transform="matrix(-0.925124,-0,0,0.925124,1532.13,426.61)">
            <rect x="755.431" y="116.591" width="80.511" height="31.637" style="fill:rgb(19,52,63);"/>
        </g>
        <g transform="matrix(0.925124,0,0,0.925124,939.79,600.523)">
            <path d="M0,38.612L-310.81,38.612C-313.222,38.612 -315.195,36.639 -315.195,34.227L-315.195,4.385C-315.195,1.973 -313.222,0 -310.81,0L0,0C2.412,0 4.385,1.973 4.385,4.385L4.385,34.227C4.385,36.639 2.412,38.612 0,38.612" style="fill:rgb(71,106,134);fill-rule:nonzero;"/>
        </g>
        <g transform="matrix(0.925124,0,0,0.925124,1003.49,544.931)">
            <path d="M0,-290.695L-165.114,-290.695L-202.905,-253.019L-172.508,-225.908L-247.268,-131.431L-219.391,-217.693L-257.127,-244.803L-235.767,-268.975L-257.127,-290.695L-439.904,-290.695C-445.335,-290.695 -449.779,-286.252 -449.779,-280.821L-449.779,-9.875C-449.779,-4.444 -445.335,0 -439.904,0L0,0C5.431,0 9.875,-4.444 9.875,-9.875L9.875,-280.821C9.875,-286.252 5.431,-290.695 0,-290.695" style="fill:rgb(19,48,69);fill-rule:nonzero;"/>
        </g>
        <g transform="matrix(0.925124,0,0,0.925124,1012.63,544.931)">
            <path d="M0,-22.614L-459.654,-22.614L-459.654,-7.363C-459.654,-3.297 -456.357,0 -452.292,0L-7.362,0C-3.296,0 0,-3.297 0,-7.363L0,-22.614Z" style="fill:rgb(97,155,179);fill-rule:nonzero;"/>
        </g>
        <g transform="matrix(0.925124,0,0,0.925124,988.148,503.476)">
            <path d="M0,-224.166L-170.312,-224.166L-186.317,-208.21L-155.92,-181.099L-230.68,-86.621L-202.803,-172.883L-240.539,-199.994L-219.179,-224.166L-406.728,-224.166C-411.116,-224.166 -414.706,-220.576 -414.706,-216.188L-414.706,-7.978C-414.706,-3.59 -411.116,0 -406.728,0L0,0C4.388,0 7.978,-3.59 7.978,-7.978L7.978,-216.188C7.978,-220.576 4.388,-224.166 0,-224.166" style="fill:rgb(64,82,95);fill-rule:nonzero;"/>
        </g>
    </g>
</svg>
