<?xml version="1.0" encoding="UTF-8" standalone="no"?>
<!DOCTYPE svg PUBLIC "-//W3C//DTD SVG 1.1//EN" "http://www.w3.org/Graphics/SVG/1.1/DTD/svg11.dtd">
<svg width="100%" height="100%" viewBox="0 0 1600 800" version="1.1" xmlns="http://www.w3.org/2000/svg" xmlns:xlink="http://www.w3.org/1999/xlink" xml:space="preserve" xmlns:serif="http://www.serif.com/" style="fill-rule:evenodd;clip-rule:evenodd;stroke-linejoin:round;stroke-miterlimit:1.41421;">
    <g id="logoServ" transform="matrix(1.3554,0,0,1.3554,374.796,419.618)">
        <g transform="matrix(1,0,0,1,-256,-256)">
            <path d="M464.62,346.087L464.62,327.13L464.62,213.341L464.62,99.553C464.62,89.139 456.096,80.596 445.663,80.596L66.385,80.596C55.952,80.596 47.386,89.097 47.386,99.553L47.386,346.087L0,402.981C0,418.656 12.73,431.404 28.423,431.404L483.577,431.404C499.252,431.404 512,418.65 512,402.981L464.62,346.087ZM293.961,421.961L218.111,421.961C215.489,421.961 213.365,419.856 213.365,417.216C213.365,414.577 215.489,412.471 218.111,412.471L293.961,412.471C296.583,412.471 298.707,414.577 298.707,417.216C298.659,419.856 296.577,421.961 293.961,421.961ZM177.833,403.005L192.303,385.638L319.679,385.638L334.173,403.005L177.833,403.005ZM437.931,312.552C437.931,321.701 430.48,329.103 421.38,329.103L90.62,329.103C81.538,329.103 74.087,321.635 74.087,312.552L74.087,114.172C74.087,105.024 81.538,97.621 90.62,97.621L209.82,97.621L277.17,132.619L188.698,228.303L299.547,313.302L253.384,197.198L330.267,160.208L306.367,97.597L421.38,97.597C430.48,97.597 437.931,105.048 437.931,114.148L437.931,312.552Z" style="fill:rgb(252,196,112);fill-rule:nonzero;"/>
        </g>
    </g>
    <g transform="matrix(15.2255,0,0,14.8159,-9723.63,-2397.24)">
        <text x="684.917px" y="190.314px" style="font-family:'HiraMaruPro-W4', 'Hiragino Maru Gothic Pro', sans-serif;font-size:5.367px;fill:rgb(252,196,112);">K<tspan x="689.704px 695.098px 701.291px 706.115px 711.343px 716.044px 720.589px 725.527px 730.92px 737.537px " y="190.314px 190.314px 190.314px 190.314px 190.314px 190.314px 190.314px 190.314px 190.314px 190.314px ">OMPUTEROWY</tspan></text>
    </g>
    <g transform="matrix(22.3459,0,0,21.0805,-14600.9,-3482.34)">
        <text x="684.917px" y="190.314px" style="font-family:'HiraMaruPro-W4', 'Hiragino Maru Gothic Pro', sans-serif;font-size:5.367px;fill:rgb(252,196,112);">B<tspan x="690.692px 696.042px 702.058px 707.441px 713.639px 719.382px " y="190.314px 190.314px 190.314px 190.314px 190.314px 190.314px ">EDFORD</tspan></text>
    </g>
    <g transform="matrix(16.1218,0,0,15.2439,-10344.4,-2567.73)">
        <text x="684.917px" y="190.314px" style="font-family:'HiraMaruPro-W4', 'Hiragino Maru Gothic Pro', sans-serif;font-size:12px;fill:rgb(252,196,112);">S<tspan x="694.169px 703.133px 712.973px 726.569px 731.009px " y="190.314px 190.314px 190.314px 190.314px 190.314px ">ERWIS</tspan></text>
    </g>
</svg>
