<?xml version="1.0"?>
<svg xmlns="http://www.w3.org/2000/svg" xmlns:xlink="http://www.w3.org/1999/xlink" version="1.1" viewBox="0 0 398.854 398.854" enable-background="new 0 0 398.854 398.854" width="512px" height="512px"><g><g>
    <path d="m247.52,209.866c0.88,0.64 1.91,0.95 2.93,0.95 1.54,0 3.07-0.71 4.05-2.06 1.62-2.24 1.12-5.37-1.12-6.99-2.23-1.62-5.36-1.12-6.98,1.12-1.62,2.23-1.12,5.36 1.12,6.98z" data-original="#000000" class="active-path" data-old_color="#000000" fill="#FFFFFF"/>
    <path d="m137.97,154.316c0.52,0.17 1.04,0.24 1.55,0.24 2.11,0 4.07-1.34 4.75-3.45 0.86-2.63-0.58-5.45-3.21-6.3s-5.44,0.58-6.3,3.21c-0.85,2.63 0.59,5.45 3.21,6.3z" data-original="#000000" class="active-path" data-old_color="#000000" fill="#FFFFFF"/>
    <path d="m257.83,193.026c0.51,0.16 1.03,0.24 1.54,0.24 2.11,0 4.07-1.35 4.75-3.47 0.85-2.63-0.59-5.44-3.22-6.29-2.63-0.85-5.44,0.59-6.29,3.22s0.59,5.45 3.22,6.3z" data-original="#000000" class="active-path" data-old_color="#000000" fill="#FFFFFF"/>
    <path d="m179.89,114.096c0.51,0 1.04-0.08 1.55-0.25 2.63-0.86 4.06-3.68 3.2-6.31-0.86-2.62-3.68-4.05-6.31-3.19-2.62,0.86-4.05,3.68-3.19,6.31 0.69,2.1 2.64,3.44 4.75,3.44z" data-original="#000000" class="active-path" data-old_color="#000000" fill="#FFFFFF"/>
    <path d="m145.52,136.066c0.89,0.64 1.92,0.95 2.94,0.95 1.55,0 3.07-0.71 4.05-2.06 1.62-2.23 1.13-5.36-1.11-6.98-2.23-1.62-5.36-1.13-6.98,1.1-1.63,2.24-1.13,5.36 1.1,6.99z" data-original="#000000" class="active-path" data-old_color="#000000" fill="#FFFFFF"/>
    <path d="m162.37,123.086c1.03,0 2.06-0.32 2.95-0.97 2.23-1.63 2.71-4.75 1.09-6.98-1.63-2.23-4.76-2.72-6.99-1.09-2.23,1.62-2.72,4.75-1.09,6.98 0.98,1.34 2.5,2.06 4.04,2.06z" data-original="#000000" class="active-path" data-old_color="#000000" fill="#FFFFFF"/>
    <path d="m236.57,224.776c1.02,0 2.06-0.31 2.95-0.96 2.23-1.64 2.71-4.77 1.08-6.99-1.63-2.23-4.76-2.71-6.99-1.08s-2.71,4.76-1.08,6.99c0.98,1.33 2.5,2.04 4.04,2.04z" data-original="#000000" class="active-path" data-old_color="#000000" fill="#FFFFFF"/>
    <path d="m239.26,113.916c-2.23-1.62-5.36-1.12-6.98,1.11-1.62,2.24-1.13,5.37 1.11,6.99 0.89,0.64 1.91,0.95 2.93,0.95 1.55,0 3.07-0.72 4.05-2.06 1.62-2.24 1.13-5.37-1.11-6.99z" data-original="#000000" class="active-path" data-old_color="#000000" fill="#FFFFFF"/>
    <path d="m220.32,104.276c-2.63-0.85-5.45,0.59-6.3,3.22s0.59,5.45 3.22,6.3c0.51,0.16 1.03,0.24 1.54,0.24 2.11,0 4.07-1.35 4.75-3.46 0.86-2.63-0.58-5.451-3.21-6.3z" data-original="#000000" class="active-path" data-old_color="#000000" fill="#FFFFFF"/>
    <path d="m139.55,193.456c0.51,0 1.03-0.08 1.55-0.25 2.62-0.86 4.06-3.68 3.2-6.31-0.86-2.62-3.68-4.06-6.3-3.2-2.63,0.86-4.06,3.68-3.21,6.3 0.69,2.12 2.65,3.46 4.76,3.46z" data-original="#000000" class="active-path" data-old_color="#000000" fill="#FFFFFF"/>
    <path d="m257.72,144.625c-2.63,0.86-4.06,3.68-3.2,6.31 0.69,2.1 2.65,3.44 4.75,3.44 0.52,0 1.05-0.08 1.56-0.25 2.63-0.86 4.06-3.69 3.2-6.31-0.87-2.619-3.69-4.049-6.31-3.19z" data-original="#000000" class="active-path" data-old_color="#000000" fill="#FFFFFF"/>
    <path d="m254.31,128.906c-1.63-2.22-4.76-2.71-6.99-1.08s-2.71,4.76-1.08,6.99c0.98,1.34 2.5,2.05 4.04,2.05 1.02,0 2.06-0.32 2.95-0.97 2.23-1.63 2.71-4.76 1.08-6.99z" data-original="#000000" class="active-path" data-old_color="#000000" fill="#FFFFFF"/>
    <path d="m178.43,233.605c0.52,0.17 1.04,0.25 1.55,0.25 2.11,0 4.07-1.34 4.75-3.46 0.86-2.62-0.58-5.44-3.2-6.3-2.63-0.85-5.45,0.58-6.31,3.21-0.85,2.621 0.59,5.451 3.21,6.3z" data-original="#000000" class="active-path" data-old_color="#000000" fill="#FFFFFF"/>
    <path d="m199.43,236.926c0.03,0 0.06,0 0.1,0 0.03,0 0.06,0 0.1,0h0.01c2.76-0.01 4.99-2.26 4.99-5.02-0.01-2.76-2.26-4.99-5.02-4.98-0.04,0-0.09,0-0.13,0-0.02,0-0.04,0-0.05,0-2.76,0-5,2.24-5,5 2.84217e-14,2.76 2.24,5 5,5z" data-original="#000000" class="active-path" data-old_color="#000000" fill="#FFFFFF"/>
    <path d="m219.06,233.796c0.52,0 1.04-0.08 1.56-0.25 2.63-0.87 4.05-3.69 3.19-6.32-0.86-2.62-3.69-4.05-6.31-3.18-2.63,0.86-4.05,3.68-3.19,6.31 0.69,2.1 2.65,3.44 4.75,3.44z" data-original="#000000" class="active-path" data-old_color="#000000" fill="#FFFFFF"/>
    <path d="m144.48,208.926c0.98,1.34 2.5,2.05 4.04,2.05 1.03,0 2.06-0.31 2.94-0.96 2.24-1.63 2.73-4.76 1.1-6.99s-4.76-2.72-6.99-1.09c-2.23,1.63-2.72,4.75-1.09,6.99z" data-original="#000000" class="active-path" data-old_color="#000000" fill="#FFFFFF"/>
    <path d="m159.5,223.936c0.89,0.65 1.92,0.96 2.94,0.96 1.55,0 3.07-0.72 4.05-2.06 1.62-2.23 1.13-5.36-1.1-6.99v0.01c-2.23-1.63-5.36-1.14-6.99,1.09-1.62,2.24-1.13,5.36 1.1,6.99z" data-original="#000000" class="active-path" data-old_color="#000000" fill="#FFFFFF"/>
    <path d="m199.427,196.925c15.42,0 27.966-12.545 27.966-27.965s-12.545-27.965-27.966-27.965c-15.42,0-27.965,12.545-27.965,27.965s12.545,27.965 27.965,27.965zm0-45.931c9.906,0 17.966,8.059 17.966,17.965s-8.06,17.965-17.966,17.965-17.965-8.059-17.965-17.965 8.059-17.965 17.965-17.965z" data-original="#000000" class="active-path" data-old_color="#000000" fill="#FFFFFF"/>
    <path d="m267.456,353.858h-43.276v-17.757c81.472-12.013 144.207-82.385 144.207-167.141 0-93.165-75.795-168.96-168.96-168.96-93.165,0-168.96,75.795-168.96,168.959-1.42109e-14,84.759 62.738,155.132 144.213,167.142v17.757h-43.276c-23.094,0-44.503,13.438-54.544,34.235-1.122,2.324-0.971,5.062 0.401,7.248 1.372,2.186 3.771,3.513 6.353,3.513h231.633c2.581,0 4.98-1.327 6.353-3.513 1.372-2.186 1.523-4.923 0.401-7.248-10.042-20.797-31.451-34.235-54.545-34.235zm85.841-189.899h-7.505c-2.59-76.791-64.575-138.775-141.365-141.365v-7.504c80.926,2.596 146.274,67.943 148.87,148.869zm-153.87-32.965c20.935,0 37.966,17.031 37.966,37.965s-17.031,37.965-37.966,37.965c-20.934,0-37.965-17.031-37.965-37.965s17.031-37.965 37.965-37.965zm-5-25.982c-0.064,0.321-0.098,0.654-0.097,0.994 0,0.328 0.036,0.647 0.097,0.958v14.292c-22.463,2.338-40.367,20.241-42.704,42.704h-88.654c2.581-71.276 60.082-128.778 131.358-131.359v72.411zm-42.704,68.947c2.509,24.107 22.944,42.965 47.704,42.965s45.196-18.858 47.705-42.965h88.654c-2.641,72.936-62.789,131.459-136.359,131.459s-133.717-58.522-136.358-131.459h88.654zm95.408-10c-2.338-22.463-20.241-40.367-42.705-42.704v-88.654c71.276,2.581 128.777,60.083 131.359,131.359h-88.654zm-52.704-148.87v7.505c-76.79,2.59-138.775,64.574-141.365,141.365h-7.505c2.596-80.927 67.943-146.274 148.87-148.87zm-148.87,158.869h7.505c2.646,78.451 67.281,141.459 146.365,141.459 79.084,0 143.719-63.008 146.365-141.459h7.505c-2.649,82.588-70.65,148.959-153.87,148.959s-151.221-66.371-153.87-148.959zm144.123,163.672c3.227,0.184 6.475,0.288 9.747,0.288 3.274,0 6.525-0.104 9.753-0.288v16.228h-19.5v-16.228zm-92.034,46.223c8.527-9.363 20.79-14.996 33.758-14.996h136.052c12.968,0 25.231,5.633 33.758,14.996h-203.568z" data-original="#000000" class="active-path" data-old_color="#000000" fill="#FFFFFF"/>
  </g></g> </svg>
